<svg xmlns="http://www.w3.org/2000/svg" xmlns:xlink="http://www.w3.org/1999/xlink" viewBox="0 0 323.75 100"><defs><style>.cls-1{fill:#1b1f2f;}.cls-2{clip-path:url(#clip-path);}.cls-3{clip-path:url(#clip-path-2);}.cls-4{clip-path:url(#clip-path-3);}.cls-5{clip-path:url(#clip-path-4);}.cls-6{clip-path:url(#clip-path-5);}.cls-7{clip-path:url(#clip-path-6);}.cls-8{clip-path:url(#clip-path-7);}.cls-9{clip-path:url(#clip-path-8);}.cls-10{clip-path:url(#clip-path-9);}.cls-11{clip-path:url(#clip-path-10);}.cls-12{clip-path:url(#clip-path-11);}.cls-13{clip-path:url(#clip-path-12);}</style><clipPath id="clip-path"><path class="cls-1" d="M36.7,0c-.11,0-.16.05-.27.16A61.83,61.83,0,0,0,34.75,19.1c.92,10.37,5.94,18.08,14.74,23.48a4.25,4.25,0,0,0,.91.32c0-.37-.1-.54-.27-.64C41.55,33,37.4,21.86,36.86,9.39c-.16-3,.11-6.1.16-9.17C36.91.05,36.81,0,36.7,0Z"/></clipPath><clipPath id="clip-path-2"><path class="cls-1" d="M.05,47.49a.2.2,0,0,0,0,.16H0a.19.19,0,0,0,.05.16,3.38,3.38,0,0,0,.71.76C2.43,50.3,4,52.13,5.83,53.75A27.1,27.1,0,0,0,25.47,61c5.67-.21,11-2,16.3-4,.22-.1.43-.1.76-.21-.44-.32-.49-.38-.54-.38a1.35,1.35,0,0,0-.49.06,47,47,0,0,1-16.24,1.24,40.66,40.66,0,0,1-12.09-2.86,44.61,44.61,0,0,1-11.93-7,2,2,0,0,0-.92-.38c-.21.06-.27.06-.27.11"/></clipPath><clipPath id="clip-path-3"><path class="cls-1" d="M56,69.78a1.34,1.34,0,0,0-.1.43c-.27,2.75-.49,5.56-.81,8.31a30,30,0,0,1-3.62,11.33A31.46,31.46,0,0,1,43.12,99c-.32.27-.81.43-.38,1h.38a3.62,3.62,0,0,0,.32-.22C50.84,97.36,55,92.23,56.5,84.67a44.12,44.12,0,0,0,.11-13.38,7.66,7.66,0,0,0-.38-1.67c0,.16-.16.16-.27.16"/></clipPath><clipPath id="clip-path-4"><path class="cls-1" d="M3.29,32.22a6.49,6.49,0,0,0,.16.86,64.05,64.05,0,0,0,2.76,6.15A26,26,0,0,0,22,52a41.82,41.82,0,0,0,17.54,1c1-.11,2-.32,3-.49a.8.8,0,0,0-.06-.37,1.44,1.44,0,0,0-.54-.11c-1.94-.11-3.88-.16-5.83-.33a38.92,38.92,0,0,1-17.48-5.39A52.28,52.28,0,0,1,4.32,32.87c-.22-.27-.49-.54-.76-.81-.11,0-.16.1-.27.16"/></clipPath><clipPath id="clip-path-5"><path class="cls-1" d="M10.31,18.56c.54,2.65.92,5.35,1.67,7.94,2.7,9.39,8.8,15.65,18,19.1a58.85,58.85,0,0,0,12.58,2.92c.54,0,1.07,0,1.61.1,0-.16.06-.27.06-.43-1-.27-1.94-.59-2.92-.86-9.76-2.7-17.8-7.93-23.58-16.46a64.65,64.65,0,0,1-6.21-11.71,2.55,2.55,0,0,0-.59-.81,2.78,2.78,0,0,0-.59.21"/></clipPath><clipPath id="clip-path-6"><path class="cls-1" d="M22.94,6.69a44.09,44.09,0,0,0,.37,12.25C25.53,32.33,33.3,40.85,46,45.12a3,3,0,0,0,1,.05c-.1-.22-.1-.32-.16-.32l-.91-.6a42,42,0,0,1-19-22.88,65.23,65.23,0,0,1-3.29-14,2.66,2.66,0,0,0-.38-.86,1.34,1.34,0,0,1-.32.21"/></clipPath><clipPath id="clip-path-7"><path class="cls-1" d="M42.42,60.71a38.83,38.83,0,0,1-25.91,6.1A48.56,48.56,0,0,1,3.18,63.25a10.84,10.84,0,0,0-1.29-.43c-.06.16-.11.27-.16.43A33.08,33.08,0,0,0,12.9,69.56a26.2,26.2,0,0,0,17.91-.48c5.13-2,12.26-7,12-8.53a.6.6,0,0,0-.43.16"/></clipPath><clipPath id="clip-path-8"><path class="cls-1" d="M8,77c0,.32.43.7.76.81a50.15,50.15,0,0,0,5.61,1.94,23.47,23.47,0,0,0,16.24-1.4C36.81,75.39,41.23,70.64,45,65a1.85,1.85,0,0,0,.21-.6c0-.11-.16-.21-.21-.32C35,75.07,22.61,79.22,8,77"/></clipPath><clipPath id="clip-path-9"><path class="cls-1" d="M47.81,67.35c-.1.22-.27.38-.37.59A40.23,40.23,0,0,1,23.58,87c-1.78.54-3.67.81-5.5,1.25a1.61,1.61,0,0,0-.54.32,2.56,2.56,0,0,0,.59.43,2.2,2.2,0,0,0,.6.05c2.32-.05,4.69,0,7-.21A22.56,22.56,0,0,0,37.51,84c5.29-4.15,8.42-9.77,10.63-16a2.58,2.58,0,0,0,0-.7c-.27.06-.38.06-.38.11"/></clipPath><clipPath id="clip-path-10"><path class="cls-1" d="M51.48,69.89C50.67,72.32,50,74.74,49,77.12A35.81,35.81,0,0,1,37.88,91.37,36.85,36.85,0,0,1,30,96a1.86,1.86,0,0,0-.54.6c.27,0,.54.21.75.16,1.08-.22,2.11-.38,3.13-.65,7.34-1.89,12.9-5.94,15.92-13.11a45.19,45.19,0,0,0,3-13.44c0-.11-.1-.27-.32-.59a4,4,0,0,0-.49,1"/></clipPath><clipPath id="clip-path-11"><path class="cls-1" d="M60.12,69.89a61.47,61.47,0,0,1,1,6.36,61,61,0,0,1,.22,9,25.2,25.2,0,0,1-4.48,12.25,5.8,5.8,0,0,0-.27.87c.11,0,.22,0,.32.1a17.7,17.7,0,0,0,7.29-12.35c.7-5.89-1-11.28-3.62-16.52a4.42,4.42,0,0,0-.54-.54,2.68,2.68,0,0,1,.06.87"/></clipPath><clipPath id="clip-path-12"><path class="cls-1" d="M63.84,67.62c4.86,7.56,6,15.92,5,24.66l.27.27c.21-.21.59-.43.7-.7A18.62,18.62,0,0,0,71.4,79.92a20.73,20.73,0,0,0-6.32-11.87,3.46,3.46,0,0,0-1-.59c-.11,0-.16.05-.27.16"/></clipPath></defs><g id="Layer_2" data-name="Layer 2"><g id="layer"><path class="cls-1" d="M227.15,43.5h8.63c-.16-2.49-1.3-4.59-4.16-4.59s-4.26,2-4.47,4.59M239.23,50v4.16a13.6,13.6,0,0,1-6.74,1.56c-6.48,0-10.2-3.72-10.2-10.14,0-5.67,3-10.36,9.06-10.36,7.29,0,9.29,5,9.29,11.81H227.09c.22,3.13,2.43,5,5.56,5a13.27,13.27,0,0,0,6.58-2M146.52,43.5h8.69c-.16-2.49-1.3-4.59-4.16-4.59s-4.31,2-4.53,4.59M158.66,50v4.16A13.37,13.37,0,0,1,152,55.69c-6.48,0-10.2-3.72-10.2-10.14,0-5.67,3-10.36,9.07-10.36,7.28,0,9.33,5,9.33,11.81H146.52c.22,3.13,2.43,5,5.61,5a12.93,12.93,0,0,0,6.53-2M73.72,45,69.89,34,66,45ZM56.61,55.21,67,28.66h6l10.42,26.6H77.5l-2.27-6.1H64.49l-2.32,6.1H56.61v0ZM280.52,27.15h5.07V32h-5.07Zm-185.38,12c-3.29,0-4.58,3.5-4.58,6.26s1.13,6.36,4.48,6.36,4.31-3.67,4.31-6.36-.86-6.26-4.21-6.26M85.48,63.25V35.62h4.86v2.8a6.89,6.89,0,0,1,6.15-3.23c6,0,8.21,4.8,8.21,10.2s-2.22,10.3-8.32,10.3A6.7,6.7,0,0,1,90.66,53V63.25Zm31.57-24.12c-3.29,0-4.58,3.5-4.58,6.26s1.08,6.36,4.48,6.36,4.31-3.67,4.31-6.36-.86-6.26-4.21-6.26m-9.66,24.12V35.62h4.86v2.8a6.83,6.83,0,0,1,6.15-3.23c6,0,8.21,4.8,8.21,10.2s-2.22,10.3-8.32,10.3A6.71,6.71,0,0,1,112.57,53V63.25Zm22-8V35.56h4.53V40c.32-1.84,2.38-4.91,5.45-4.91a5.41,5.41,0,0,1,1.57.16v5.13a5.14,5.14,0,0,0-2.27-.43c-4.16,0-4.16,5.18-4.16,8v7.23h-5.12v.06Zm33.46,0V35.56h4.8v2.65a7.45,7.45,0,0,1,6.48-3.13c4.64,0,6.63,3.29,6.63,7.66V55.15h-5V44.74c0-2.38-.06-5.61-3.3-5.61-3.67,0-4.48,4-4.48,6.53v9.6h-5.12Zm23.53-5.88v-10h-3.78V35.62h3.78V31.68l5.07-1.62v5.56H196v3.72h-4.53v9.12c0,1.67.43,3.24,2.37,3.24a4.2,4.2,0,0,0,2.32-.54l.17,4.05a13.15,13.15,0,0,1-3.78.43c-3.94,0-6.15-2.43-6.15-6.31M221,35.78l-.43,4a7.53,7.53,0,0,0-3.45-.7c-3.13,0-5.18,2.53-5.18,6.2s1.72,6.37,5.29,6.37a11,11,0,0,0,3.93-.92l.22,4.21a17.59,17.59,0,0,1-5.07.65c-6.48,0-9.72-4.37-9.72-10.36,0-5.67,3.35-10.15,9.45-10.15a16.3,16.3,0,0,1,5,.65m34.76,0-.33,3.84a12.25,12.25,0,0,0-4.53-.81c-1.35,0-3,.48-3,2.15,0,3.13,8.85,1.14,8.85,8.21,0,4.53-4.05,6.37-8.2,6.37a20.8,20.8,0,0,1-5.78-.87l.33-4.15a11.14,11.14,0,0,0,5,1.29c1.3,0,3.35-.48,3.35-2.37,0-3.83-8.85-1.19-8.85-8.31,0-4.21,3.67-6.1,7.66-6.1a28.32,28.32,0,0,1,5.51.75m67,0-.32,3.84a12.29,12.29,0,0,0-4.53-.81c-1.35,0-3,.48-3,2.15,0,3.13,8.86,1.14,8.86,8.21,0,4.53-4.05,6.37-8.21,6.37a20.73,20.73,0,0,1-5.77-.87l.32-4.15a11.18,11.18,0,0,0,5,1.29c1.3,0,3.35-.48,3.35-2.37,0-3.83-8.85-1.19-8.85-8.31,0-4.21,3.67-6.1,7.66-6.1a28.21,28.21,0,0,1,5.5.75M259.31,55.21V28.28l5.07-1.62v11.6a7.54,7.54,0,0,1,6.26-3.13c4.64,0,6.64,3.29,6.64,7.67V55.15h-5.07V44.68c0-2.37-.06-5.61-3.29-5.61-3.67,0-4.48,4-4.48,6.53v9.61Zm39.18-16.08c-3.29,0-4.59,3.5-4.59,6.26s1.08,6.36,4.48,6.36,4.32-3.67,4.32-6.36-.87-6.26-4.21-6.26m-9.71,24.12V35.62h4.85v2.8a6.89,6.89,0,0,1,6.15-3.23c6,0,8.21,4.8,8.21,10.2s-2.22,10.3-8.31,10.3A6.69,6.69,0,0,1,294,53V63.25ZM199,35.56h5.08V55.21H199Zm0-8.41h5.08V32H199Zm81.55,8.41h5.07V55.21h-5.07Z"/><path class="cls-1" d="M36.7,0c-.11,0-.16.05-.27.16A61.83,61.83,0,0,0,34.75,19.1c.92,10.37,5.94,18.08,14.74,23.48a4.25,4.25,0,0,0,.91.32c0-.37-.1-.54-.27-.64C41.55,33,37.4,21.86,36.86,9.39c-.16-3,.11-6.1.16-9.17C36.91.05,36.81,0,36.7,0Z"/><g class="cls-2"><polygon class="cls-1" points="43.82 50.84 13.17 25.53 40.74 -7.93 71.4 17.38 43.82 50.84"/></g><path class="cls-1" d="M.05,47.49a.2.2,0,0,0,0,.16H0a.19.19,0,0,0,.05.16,3.38,3.38,0,0,0,.71.76C2.43,50.3,4,52.13,5.83,53.75A27.1,27.1,0,0,0,25.47,61c5.67-.21,11-2,16.3-4,.22-.1.43-.1.76-.21-.44-.32-.49-.38-.54-.38a1.35,1.35,0,0,0-.49.06,47,47,0,0,1-16.24,1.24,40.66,40.66,0,0,1-12.09-2.86,44.61,44.61,0,0,1-11.93-7,2,2,0,0,0-.92-.38c-.21.06-.27.06-.27.11"/><g class="cls-3"><polygon class="cls-1" points="25.26 82.14 -6.85 55.69 17.16 26.55 49.22 53.05 25.26 82.14"/></g><path class="cls-1" d="M56,69.78a1.34,1.34,0,0,0-.1.43c-.27,2.75-.49,5.56-.81,8.31a30,30,0,0,1-3.62,11.33A31.46,31.46,0,0,1,43.12,99c-.32.27-.81.43-.38,1h.38a3.62,3.62,0,0,0,.32-.22C50.84,97.36,55,92.23,56.5,84.67a44.12,44.12,0,0,0,.11-13.38,7.66,7.66,0,0,0-.38-1.67c0,.16-.16.16-.27.16"/><g class="cls-4"><polygon class="cls-1" points="51.27 107.5 27.36 87.86 48.3 62.33 72.21 82.03 51.27 107.5"/></g><path class="cls-1" d="M3.29,32.22a6.49,6.49,0,0,0,.16.86,64.05,64.05,0,0,0,2.76,6.15A26,26,0,0,0,22,52a41.82,41.82,0,0,0,17.54,1c1-.11,2-.32,3-.49a.8.8,0,0,0-.06-.37,1.44,1.44,0,0,0-.54-.11c-1.94-.11-3.88-.16-5.83-.33a38.92,38.92,0,0,1-17.48-5.39A52.28,52.28,0,0,1,4.32,32.87c-.22-.27-.49-.54-.76-.81-.11,0-.16.1-.27.16"/><g class="cls-5"><polygon class="cls-1" points="26.66 73.07 -7.39 45.06 19.1 12.84 53.16 40.91 26.66 73.07"/></g><path class="cls-1" d="M10.31,18.56c.54,2.65.92,5.35,1.67,7.94,2.7,9.39,8.8,15.65,18,19.1a58.85,58.85,0,0,0,12.58,2.92c.54,0,1.07,0,1.61.1,0-.16.06-.27.06-.43-1-.27-1.94-.59-2.92-.86-9.76-2.7-17.8-7.93-23.58-16.46a64.65,64.65,0,0,1-6.21-11.71,2.55,2.55,0,0,0-.59-.81,2.78,2.78,0,0,0-.59.21"/><g class="cls-6"><polygon class="cls-1" points="30.49 65.19 -4.53 36.32 24.02 1.67 59.04 30.55 30.49 65.19"/></g><path class="cls-1" d="M22.94,6.69a44.09,44.09,0,0,0,.37,12.25C25.53,32.33,33.3,40.85,46,45.12a3,3,0,0,0,1,.05c-.1-.22-.1-.32-.16-.32l-.91-.6a42,42,0,0,1-19-22.88,65.23,65.23,0,0,1-3.29-14,2.66,2.66,0,0,0-.38-.86,1.34,1.34,0,0,1-.32.21"/><g class="cls-7"><polygon class="cls-1" points="37.08 57.2 3.56 29.57 32.38 -5.45 65.89 22.18 37.08 57.2"/></g><path class="cls-1" d="M42.42,60.71a38.83,38.83,0,0,1-25.91,6.1A48.56,48.56,0,0,1,3.18,63.25a10.84,10.84,0,0,0-1.29-.43c-.06.16-.11.27-.16.43A33.08,33.08,0,0,0,12.9,69.56a26.2,26.2,0,0,0,17.91-.48c5.13-2,12.26-7,12-8.53a.6.6,0,0,0-.43.16"/><g class="cls-8"><polygon class="cls-1" points="26.39 91.8 -3.72 67.03 18.46 40.2 48.46 64.98 26.39 91.8"/></g><path class="cls-1" d="M8,77c0,.32.43.7.76.81a50.15,50.15,0,0,0,5.61,1.94,23.47,23.47,0,0,0,16.24-1.4C36.81,75.39,41.23,70.64,45,65a1.85,1.85,0,0,0,.21-.6c0-.11-.16-.21-.21-.32C35,75.07,22.61,79.22,8,77"/><g class="cls-9"><polygon class="cls-1" points="30.11 99.35 -0.38 74.26 22.99 45.87 53.53 71.02 30.11 99.35"/></g><path class="cls-1" d="M47.81,67.35c-.1.22-.27.38-.37.59A40.23,40.23,0,0,1,23.58,87c-1.78.54-3.67.81-5.5,1.25a1.61,1.61,0,0,0-.54.32,2.56,2.56,0,0,0,.59.43,2.2,2.2,0,0,0,.6.05c2.32-.05,4.69,0,7-.21A22.56,22.56,0,0,0,37.51,84c5.29-4.15,8.42-9.77,10.63-16a2.58,2.58,0,0,0,0-.7c-.27.06-.38.06-.38.11"/><g class="cls-10"><polygon class="cls-1" points="35.83 104.05 6.85 80.14 30 52.08 58.98 75.98 35.83 104.05"/></g><path class="cls-1" d="M51.48,69.89C50.67,72.32,50,74.74,49,77.12A35.81,35.81,0,0,1,37.88,91.37,36.85,36.85,0,0,1,30,96a1.86,1.86,0,0,0-.54.6c.27,0,.54.21.75.16,1.08-.22,2.11-.38,3.13-.65,7.34-1.89,12.9-5.94,15.92-13.11a45.19,45.19,0,0,0,3-13.44c0-.11-.1-.27-.32-.59a4,4,0,0,0-.49,1"/><g class="cls-11"><polygon class="cls-1" points="42.9 107.93 15.7 85.48 38.59 57.74 65.78 80.19 42.9 107.93"/></g><path class="cls-1" d="M60.12,69.89a61.47,61.47,0,0,1,1,6.36,61,61,0,0,1,.22,9,25.2,25.2,0,0,1-4.48,12.25,5.8,5.8,0,0,0-.27.87c.11,0,.22,0,.32.1a17.7,17.7,0,0,0,7.29-12.35c.7-5.89-1-11.28-3.62-16.52a4.42,4.42,0,0,0-.54-.54,2.68,2.68,0,0,1,.06.87"/><g class="cls-12"><polygon class="cls-1" points="61.63 102.59 42.26 86.56 60.06 65.03 79.49 81 61.63 102.59"/></g><path class="cls-1" d="M63.84,67.62c4.86,7.56,6,15.92,5,24.66l.27.27c.21-.21.59-.43.7-.7A18.62,18.62,0,0,0,71.4,79.92a20.73,20.73,0,0,0-6.32-11.87,3.46,3.46,0,0,0-1-.59c-.11,0-.16.05-.27.16"/><g class="cls-13"><polygon class="cls-1" points="68.81 96.65 51.54 82.35 67.19 63.3 84.51 77.55 68.81 96.65"/></g></g></g></svg>