<svg xmlns="http://www.w3.org/2000/svg" viewBox="0 0 1066.32 283.49"><defs><style>.cls-1{fill:#a87b44;}</style></defs><g id="Layer_2" data-name="Layer 2"><g id="Layer_1-2" data-name="Layer 1"><path class="cls-1" d="M77.7,146.39H46.91V98.61H55V139H77.7Z"/><path class="cls-1" d="M277.53,72.37l5.12,5.6a23.11,23.11,0,0,1-19,9q-10.86,0-17.92-6.86t-7.07-17.71q0-11.07,7-17.92t17.71-6.86q12,0,18.64,9l-5.26,5.46a15.35,15.35,0,0,0-13.24-7A15.7,15.7,0,0,0,251.66,50,17.25,17.25,0,0,0,247,62.41a16.78,16.78,0,0,0,4.78,12.25,16.08,16.08,0,0,0,12,4.88Q272.14,79.54,277.53,72.37Z"/><path class="cls-1" d="M1007,225.32l-5.8-1q-6.63-1.1-10.31-4.74a12.66,12.66,0,0,1-3.69-9.39,11.94,11.94,0,0,1,4.92-10,19.08,19.08,0,0,1,11.94-3.75,23.42,23.42,0,0,1,17.68,7.64l-5.66,6q-5.19-6.27-12.36-6.28c-2.73,0-4.8.62-6.21,1.84a5.58,5.58,0,0,0-2.12,4.3q0,5.13,7.58,6.42l4.78.82q15,2.6,15,14.61a12.28,12.28,0,0,1-4.92,10.1q-4.9,3.9-13.38,3.89a23.08,23.08,0,0,1-19-9.14l5.53-5.6a20.65,20.65,0,0,0,6,5.39,16.75,16.75,0,0,0,8.57,2q4.37,0,6.72-1.81a5.62,5.62,0,0,0,2.36-4.67Q1014.5,226.61,1007,225.32Z"/><path class="cls-1" d="M62.3,173a50.52,50.52,0,1,1,50.52-50.52A50.58,50.58,0,0,1,62.3,173Zm0-97.85a47.33,47.33,0,1,0,47.34,47.33A47.38,47.38,0,0,0,62.3,75.17Z"/><path class="cls-1" d="M62.3,184.81a62.31,62.31,0,1,1,62.31-62.31A62.38,62.38,0,0,1,62.3,184.81Zm0-121.43a59.12,59.12,0,1,0,59.12,59.12A59.18,59.18,0,0,0,62.3,63.38Z"/><path class="cls-1" d="M1004,271.71a50.52,50.52,0,1,1,50.52-50.52A50.58,50.58,0,0,1,1004,271.71Zm0-97.86a47.34,47.34,0,1,0,47.33,47.34A47.39,47.39,0,0,0,1004,173.85Z"/><path class="cls-1" d="M1004,283.49a62.31,62.31,0,1,1,62.3-62.3A62.38,62.38,0,0,1,1004,283.49Zm0-121.42a59.12,59.12,0,1,0,59.12,59.12A59.19,59.19,0,0,0,1004,162.07Z"/><path class="cls-1" d="M260.64,112.82A50.52,50.52,0,1,1,311.16,62.3,50.57,50.57,0,0,1,260.64,112.82Zm0-97.85A47.34,47.34,0,1,0,308,62.3,47.39,47.39,0,0,0,260.64,15Z"/><path class="cls-1" d="M260.64,124.61a62.31,62.31,0,1,1,62.3-62.31A62.38,62.38,0,0,1,260.64,124.61Zm0-121.42A59.12,59.12,0,1,0,319.75,62.3,59.18,59.18,0,0,0,260.64,3.19Z"/><rect class="cls-1" x="112.64" y="90.81" width="97.67" height="3.19" transform="translate(-22.65 119.08) rotate(-38.03)"/><polygon class="cls-1" points="942.15 222.28 320.19 63.4 322.51 61.21 944.47 220.09 942.15 222.28"/></g></g></svg>