<svg xmlns="http://www.w3.org/2000/svg" viewBox="0 0 39.52 39.52"><defs><style>.cls-1{fill:#fff;}</style></defs><g id="Layer_2" data-name="Layer 2"><g id="Layer_1-2" data-name="Layer 1"><path class="cls-1" d="M19.76,35.78a16,16,0,1,1,16-16A16,16,0,0,1,19.76,35.78Zm0-31a15,15,0,1,0,15,15A15,15,0,0,0,19.76,4.75Z"/><path class="cls-1" d="M19.76,39.52A19.76,19.76,0,1,1,39.52,19.76,19.78,19.78,0,0,1,19.76,39.52ZM19.76,1A18.75,18.75,0,1,0,38.51,19.76,18.77,18.77,0,0,0,19.76,1Z"/><path class="cls-1" d="M17.66,24.54h6.72v2.09H15.16v-.45a6.6,6.6,0,0,1,1-3.84,9.42,9.42,0,0,1,3.57-2.74l.35-.17a4.59,4.59,0,0,0,1.51-1.08,2.24,2.24,0,0,0,.45-1.45,1.76,1.76,0,0,0-.61-1.4A2.5,2.5,0,0,0,19.79,15a3,3,0,0,0-1.9.63,4,4,0,0,0-1.27,1.73l-1.5-1.51a4.82,4.82,0,0,1,1.81-2.12,5,5,0,0,1,2.8-.81A5.16,5.16,0,0,1,23,14a3.67,3.67,0,0,1,1.36,3q0,2.65-3,4.17l-1.18.59a9.06,9.06,0,0,0-.88.51,7.69,7.69,0,0,0-.76.56,2.74,2.74,0,0,0-.64.77A3.12,3.12,0,0,0,17.66,24.54Z"/></g></g></svg>