<svg xmlns="http://www.w3.org/2000/svg" viewBox="0 0 39.52 39.52"><defs><style>.cls-1{fill:#fff;}</style></defs><g id="Layer_2" data-name="Layer 2"><g id="Layer_1-2" data-name="Layer 1"><path class="cls-1" d="M19.76,35.78a16,16,0,1,1,16-16A16,16,0,0,1,19.76,35.78Zm0-31a15,15,0,1,0,15,15A15,15,0,0,0,19.76,4.75Z"/><path class="cls-1" d="M19.76,39.52A19.76,19.76,0,1,1,39.52,19.76,19.78,19.78,0,0,1,19.76,39.52ZM19.76,1A18.75,18.75,0,1,0,38.51,19.76,18.77,18.77,0,0,0,19.76,1Z"/><path class="cls-1" d="M15.35,26.51V24.43h3.36V15.9a5.27,5.27,0,0,1-3.36,1v-2a5.8,5.8,0,0,0,2.14-.51A2.74,2.74,0,0,0,18.92,13H21V24.43h3.35v2.08Z"/></g></g></svg>