<svg xmlns="http://www.w3.org/2000/svg" viewBox="0 0 39.52 39.52"><defs><style>.cls-1{fill:#fff;}</style></defs><g id="Layer_2" data-name="Layer 2"><g id="Layer_1-2" data-name="Layer 1"><path class="cls-1" d="M19.76,35.78a16,16,0,1,1,16-16A16,16,0,0,1,19.76,35.78Zm0-31a15,15,0,1,0,15,15A15,15,0,0,0,19.76,4.75Z"/><path class="cls-1" d="M19.76,39.52A19.76,19.76,0,1,1,39.52,19.76,19.78,19.78,0,0,1,19.76,39.52ZM19.76,1A18.75,18.75,0,1,0,38.51,19.76,18.77,18.77,0,0,0,19.76,1Z"/><path class="cls-1" d="M22.6,19.46A3.48,3.48,0,0,1,24,20.67a3.41,3.41,0,0,1,.57,2,3.59,3.59,0,0,1-1.37,3,5.43,5.43,0,0,1-3.47,1.08A6.2,6.2,0,0,1,17,26.14a5.86,5.86,0,0,1-2-1.57L16.55,23a4,4,0,0,0,3.24,1.64,2.72,2.72,0,0,0,1.75-.56,1.72,1.72,0,0,0,.7-1.41,1.68,1.68,0,0,0-.76-1.47,3.74,3.74,0,0,0-2.14-.52h-1V18.57h.79A3.47,3.47,0,0,0,21.21,18a1.72,1.72,0,0,0,.7-1.44,1.46,1.46,0,0,0-.65-1.3,2.71,2.71,0,0,0-1.55-.43,3.6,3.6,0,0,0-2.91,1.46l-1.49-1.48a5.65,5.65,0,0,1,4.38-2.07,5.33,5.33,0,0,1,3.19,1,3.2,3.2,0,0,1,1.33,2.8A3.35,3.35,0,0,1,22.6,19.46Z"/></g></g></svg>