<svg xmlns="http://www.w3.org/2000/svg" viewBox="0 0 546.45 45.04"><defs><style>.cls-1{fill:#ded6cf;}</style></defs><g id="Layer_2" data-name="Layer 2"><g id="Layer_1-2" data-name="Layer 1"><path class="cls-1" d="M28.1,44.36H0V.75H7.41V37.63H28.1Z"/><path class="cls-1" d="M43.43,45a10.89,10.89,0,0,1-7.32-2.52,8.4,8.4,0,0,1-3-6.76,8.85,8.85,0,0,1,3.55-7.6,15.09,15.09,0,0,1,9.16-2.62A19.56,19.56,0,0,1,52,26.6V24.55a4.48,4.48,0,0,0-1.71-3.68A6.62,6.62,0,0,0,46,19.5a7.82,7.82,0,0,0-7.23,4.42L34,19.44a11.37,11.37,0,0,1,5-4.74,15.87,15.87,0,0,1,7-1.62q5.92,0,9.47,2.93t3.56,8.6V44.36h-7V42A12.74,12.74,0,0,1,43.43,45Zm-3.18-9.78a3.2,3.2,0,0,0,1.18,2.56,5.22,5.22,0,0,0,3.43,1A10,10,0,0,0,52,36.2V32.71a18,18,0,0,0-6.35-1.25,7,7,0,0,0-4,1A3.2,3.2,0,0,0,40.25,35.26Z"/><path class="cls-1" d="M80.12,32.83l-4.05-1q-9.28-2.31-9.28-9.66a8,8,0,0,1,3.11-6.63,12.54,12.54,0,0,1,8-2.47,15.4,15.4,0,0,1,11.4,5.11l-4.42,4.86a8.53,8.53,0,0,0-7.17-3.86,5,5,0,0,0-3,.84,2.47,2.47,0,0,0-1.12,2c0,1.46,1,2.42,3,2.87L81.37,26q9.09,2.19,9.09,9.54a8.48,8.48,0,0,1-3.18,6.82Q84.12,45,78.31,45A15.35,15.35,0,0,1,65.6,39.13l4.49-4.61a10.52,10.52,0,0,0,8.78,4.42q4.74,0,4.74-3.12C83.61,34.41,82.45,33.42,80.12,32.83Z"/><path class="cls-1" d="M123.05,31.21H102.18a7.75,7.75,0,0,0,2.42,5.42,8,8,0,0,0,5.61,2,9.07,9.07,0,0,0,7.85-4.3l4.8,4.48A15.28,15.28,0,0,1,110.21,45a14.71,14.71,0,0,1-11.09-4.39,15.71,15.71,0,0,1-4.23-11.37,17.35,17.35,0,0,1,3.89-11.52,12.81,12.81,0,0,1,10.37-4.68,14.43,14.43,0,0,1,6.33,1.34A11.39,11.39,0,0,1,119.87,18a16.71,16.71,0,0,1,2.43,5,19.83,19.83,0,0,1,.81,5.7ZM109.22,19.56a6,6,0,0,0-4.49,1.75,8.28,8.28,0,0,0-2.18,4.23h13A6.56,6.56,0,0,0,114,21.37,5.9,5.9,0,0,0,109.22,19.56Z"/><path class="cls-1" d="M147.91,13.46v6.73a9.51,9.51,0,0,0-1.13-.07q-5.24,0-7.32,2.93t-2.08,9.35v12h-7.11V13.83h7v3.3q3.12-3.73,9.29-3.73C147,13.4,147.41,13.42,147.91,13.46Z"/><path class="cls-1" d="M205.28,31.71,210,36.82A21.12,21.12,0,0,1,192.58,45q-9.92,0-16.36-6.26t-6.45-16.16q0-10.1,6.39-16.36T192.32,0q11,0,17,8.22l-4.79,5a14,14,0,0,0-12.09-6.42,14.32,14.32,0,0,0-10.78,4.49,15.75,15.75,0,0,0-4.3,11.34,15.37,15.37,0,0,0,4.36,11.18,14.72,14.72,0,0,0,11,4.45Q200.37,38.25,205.28,31.71Z"/><path class="cls-1" d="M219.43,40.5a15.44,15.44,0,0,1-4.55-11.4,15.57,15.57,0,0,1,4.55-11.44,16,16,0,0,1,22.39,0A15.51,15.51,0,0,1,246.4,29.1a15.43,15.43,0,0,1-4.58,11.37,16,16,0,0,1-22.39,0Zm5.07-18.26a9.9,9.9,0,0,0-2.4,6.86A9.89,9.89,0,0,0,224.5,36a8.3,8.3,0,0,0,12.22,0,9.93,9.93,0,0,0,2.39-6.85,9.94,9.94,0,0,0-2.39-6.86,8.3,8.3,0,0,0-12.22,0Z"/><path class="cls-1" d="M260.67,27.47V44.36h-7.1V13.83h7v2.49a10,10,0,0,1,7.92-3.24,11.4,11.4,0,0,1,8.88,3.55q3.2,3.56,3.2,10V44.36h-7.1V26.6a7.89,7.89,0,0,0-1.59-5.17,5.46,5.46,0,0,0-4.45-1.93,6.08,6.08,0,0,0-5,2.15A9,9,0,0,0,260.67,27.47Z"/><path class="cls-1" d="M301.54,32.83l-4.05-1q-9.28-2.31-9.28-9.66a8,8,0,0,1,3.11-6.63,12.54,12.54,0,0,1,8-2.47,15.4,15.4,0,0,1,11.4,5.11l-4.42,4.86a8.53,8.53,0,0,0-7.17-3.86,5,5,0,0,0-3.05.84,2.47,2.47,0,0,0-1.12,2c0,1.46,1,2.42,3,2.87l4.8,1.12q9.09,2.19,9.09,9.54a8.48,8.48,0,0,1-3.18,6.82q-3.18,2.64-9,2.64A15.34,15.34,0,0,1,287,39.13l4.49-4.61a10.52,10.52,0,0,0,8.78,4.42q4.74,0,4.74-3.12C305,34.41,303.86,33.42,301.54,32.83Z"/><path class="cls-1" d="M329.57,44.42q-5.91,0-8.22-2.46c-1.54-1.64-2.3-4.43-2.3-8.38V20.19h-4.49V13.83h4.49V5.3h7v8.53h7.29v6.36h-7.29V32.52c0,2.2.34,3.68,1,4.43s2,1.12,4,1.12l2.3-.13V44.3C332.46,44.38,331.19,44.42,329.57,44.42Z"/><path class="cls-1" d="M357.55,13.46v6.73a9.51,9.51,0,0,0-1.13-.07q-5.22,0-7.32,2.93T347,32.4v12h-7.1V13.83h7v3.3q3.12-3.73,9.29-3.73C356.59,13.4,357.05,13.42,357.55,13.46Z"/><path class="cls-1" d="M362.72,13.83h7.1V32.09a7.22,7.22,0,0,0,1.5,4.82,5.19,5.19,0,0,0,4.23,1.78,5.67,5.67,0,0,0,4.68-2.12A8.65,8.65,0,0,0,381.91,31V13.83H389V44.36h-7V41.87A10.1,10.1,0,0,1,374.12,45a10.48,10.48,0,0,1-8.29-3.55c-2.07-2.36-3.11-5.67-3.11-9.9Z"/><path class="cls-1" d="M411.69,19.56a7.55,7.55,0,0,0-5.95,2.68,10.05,10.05,0,0,0-2.34,6.86A10,10,0,0,0,405.77,36a7.63,7.63,0,0,0,6,2.68,7.78,7.78,0,0,0,4.39-1.15,14.56,14.56,0,0,0,3.46-3.59l4.86,4.55a14.81,14.81,0,0,1-13,6.6,14.61,14.61,0,0,1-10.84-4.57,15.63,15.63,0,0,1-4.49-11.37,15.74,15.74,0,0,1,4.49-11.41,14.58,14.58,0,0,1,10.84-4.61,15,15,0,0,1,12.4,6.11L419,23.92C416.77,21,414.34,19.56,411.69,19.56Z"/><path class="cls-1" d="M442,44.42q-5.92,0-8.23-2.46c-1.54-1.64-2.3-4.43-2.3-8.38V20.19H427V13.83h4.49V5.3h7v8.53h7.29v6.36h-7.29V32.52c0,2.2.33,3.68,1,4.43s2,1.12,4,1.12l2.31-.13V44.3C444.91,44.38,443.65,44.42,442,44.42Z"/><path class="cls-1" d="M452.74,7.6a4.33,4.33,0,0,1-1.31-3.18,4.23,4.23,0,0,1,1.31-3.14,4.59,4.59,0,0,1,6.36,0,4.22,4.22,0,0,1,1.3,3.14,4.32,4.32,0,0,1-1.3,3.18,4.51,4.51,0,0,1-6.36,0Zm6.73,36.76h-7.1V13.83h7.1Z"/><path class="cls-1" d="M471.18,40.5a15.48,15.48,0,0,1-4.55-11.4,15.61,15.61,0,0,1,4.55-11.44,16,16,0,0,1,22.4,0,15.55,15.55,0,0,1,4.58,11.44,15.47,15.47,0,0,1-4.58,11.37,16,16,0,0,1-22.4,0Zm5.08-18.26a9.9,9.9,0,0,0-2.4,6.86,9.89,9.89,0,0,0,2.4,6.85,8.29,8.29,0,0,0,12.21,0,9.89,9.89,0,0,0,2.4-6.85,9.9,9.9,0,0,0-2.4-6.86,8.29,8.29,0,0,0-12.21,0Z"/><path class="cls-1" d="M512.43,27.47V44.36h-7.11V13.83h7v2.49a10,10,0,0,1,7.91-3.24q5.67,0,8.88,3.55t3.21,10V44.36h-7.1V26.6a7.89,7.89,0,0,0-1.59-5.17,5.48,5.48,0,0,0-4.46-1.93,6,6,0,0,0-5,2.15A9,9,0,0,0,512.43,27.47Z"/><path class="cls-1" d="M530.6,8.52a7.89,7.89,0,0,1,2.28-5.7,7.51,7.51,0,0,1,5.6-2.35,7.63,7.63,0,0,1,5.64,2.35,7.82,7.82,0,0,1,2.33,5.7,7.75,7.75,0,0,1-2.33,5.66,7.66,7.66,0,0,1-5.64,2.34,7.53,7.53,0,0,1-5.6-2.34A7.82,7.82,0,0,1,530.6,8.52Zm2.15,0a5.72,5.72,0,0,0,1.66,4.17,5.43,5.43,0,0,0,4.07,1.7,5.5,5.5,0,0,0,4.11-1.7,5.69,5.69,0,0,0,1.68-4.17,5.86,5.86,0,0,0-1.68-4.23,5.49,5.49,0,0,0-4.11-1.73,5.42,5.42,0,0,0-4.07,1.73A5.89,5.89,0,0,0,532.75,8.52ZM542.14,12h-2.23l-1.4-2h-1v2h-2V4.68h3.29a3.77,3.77,0,0,1,2.21.64,2.24,2.24,0,0,1,.9,1.95,2.43,2.43,0,0,1-1.51,2.39ZM538.48,6.4h-1V8.2h1c1,0,1.45-.31,1.45-.93S539.45,6.4,538.48,6.4Z"/></g></g></svg>