<svg xmlns="http://www.w3.org/2000/svg" viewBox="0 0 361.46 143.88"><defs><style>.cls-1{fill:#ded6cf;}</style></defs><g id="Layer_2" data-name="Layer 2"><g id="Layer_1-2" data-name="Layer 1"><path class="cls-1" d="M52.36,98.66H31.62V66.46h5.47V93.69H52.36Z"/><path class="cls-1" d="M187,48.78l3.45,3.77a15.57,15.57,0,0,1-12.83,6.07A16.64,16.64,0,0,1,165.58,54a15.92,15.92,0,0,1-4.76-11.94A16.17,16.17,0,0,1,165.53,30a16.38,16.38,0,0,1,11.94-4.62q8.1,0,12.56,6.07l-3.54,3.68a10.35,10.35,0,0,0-8.92-4.74,10.56,10.56,0,0,0-8,3.32,11.59,11.59,0,0,0-3.18,8.37,11.37,11.37,0,0,0,3.22,8.26,10.88,10.88,0,0,0,8.1,3.29A11.15,11.15,0,0,0,187,48.78Z"/><path class="cls-1" d="M321.47,104.68l-3.91-.65a12.4,12.4,0,0,1-6.95-3.2,8.49,8.49,0,0,1-2.49-6.32,8,8,0,0,1,3.32-6.72,12.85,12.85,0,0,1,8.05-2.53,15.79,15.79,0,0,1,11.91,5.15l-3.81,4a10.52,10.52,0,0,0-8.33-4.23,6.2,6.2,0,0,0-4.19,1.24,3.75,3.75,0,0,0-1.42,2.9q0,3.45,5.1,4.33l3.22.55Q332,101,332.05,109.09a8.31,8.31,0,0,1-3.31,6.81q-3.32,2.63-9,2.62a15.57,15.57,0,0,1-12.84-6.16l3.73-3.77a13.91,13.91,0,0,0,4,3.63,11.32,11.32,0,0,0,5.78,1.33,7.34,7.34,0,0,0,4.53-1.21,3.82,3.82,0,0,0,1.59-3.16Q326.53,105.55,321.47,104.68Z"/><path class="cls-1" d="M42,116.61A34.05,34.05,0,1,1,76,82.56,34.1,34.1,0,0,1,42,116.61Zm0-65.95a31.9,31.9,0,1,0,31.9,31.9A31.94,31.94,0,0,0,42,50.66Z"/><path class="cls-1" d="M42,124.55a42,42,0,1,1,42-42A42,42,0,0,1,42,124.55Zm0-81.83A39.84,39.84,0,1,0,81.83,82.56,39.88,39.88,0,0,0,42,42.72Z"/><path class="cls-1" d="M319.47,135.94a34.05,34.05,0,1,1,34-34A34.08,34.08,0,0,1,319.47,135.94Zm0-65.95a31.9,31.9,0,1,0,31.9,31.9A31.94,31.94,0,0,0,319.47,70Z"/><path class="cls-1" d="M319.47,143.88a42,42,0,1,1,42-42A42,42,0,0,1,319.47,143.88Zm0-81.83a39.84,39.84,0,1,0,39.84,39.84A39.89,39.89,0,0,0,319.47,62.05Z"/><path class="cls-1" d="M175.66,76A34.05,34.05,0,1,1,209.7,42,34.09,34.09,0,0,1,175.66,76Zm0-65.95A31.9,31.9,0,1,0,207.56,42,31.94,31.94,0,0,0,175.66,10.09Z"/><path class="cls-1" d="M175.66,84a42,42,0,1,1,42-42A42,42,0,0,1,175.66,84Zm0-81.83A39.84,39.84,0,1,0,215.5,42,39.89,39.89,0,0,0,175.66,2.15Z"/><rect class="cls-1" x="75.91" y="61.2" width="65.82" height="2.15" transform="translate(-15.26 80.26) rotate(-38.03)"/><polygon class="cls-1" points="277.77 102.63 215.79 42.73 217.35 41.25 279.33 101.16 277.77 102.63"/></g></g></svg>