<svg xmlns="http://www.w3.org/2000/svg" viewBox="0 0 185.9 15.19"><defs><style>.cls-1{fill:#1c1f2e;}</style></defs><g id="Layer_2" data-name="Layer 2"><g id="Layer_1-2" data-name="Layer 1"><path class="cls-1" d="M9.47,15H0V.25H2.5V12.69h7Z"/><path class="cls-1" d="M14.64,15.19a3.72,3.72,0,0,1-2.47-.85,2.87,2.87,0,0,1-1-2.28,3,3,0,0,1,1.2-2.56,5.07,5.07,0,0,1,3.09-.89A6.51,6.51,0,0,1,17.54,9V8.28A1.5,1.5,0,0,0,17,7a2.2,2.2,0,0,0-1.44-.46,2.6,2.6,0,0,0-2.43,1.49L11.47,6.55A3.8,3.8,0,0,1,13.17,5a5.22,5.22,0,0,1,2.37-.55,4.88,4.88,0,0,1,3.2,1,3.53,3.53,0,0,1,1.19,2.9V15H17.58v-.8A4.32,4.32,0,0,1,14.64,15.19Zm-1.07-3.3a1.06,1.06,0,0,0,.4.86,1.76,1.76,0,0,0,1.16.34,3.35,3.35,0,0,0,2.41-.89V11a6.06,6.06,0,0,0-2.14-.42,2.39,2.39,0,0,0-1.34.33A1.08,1.08,0,0,0,13.57,11.89Z"/><path class="cls-1" d="M27,11.07l-1.36-.34c-2.09-.51-3.13-1.6-3.13-3.25a2.7,2.7,0,0,1,1.05-2.24,4.25,4.25,0,0,1,2.71-.83,5.19,5.19,0,0,1,3.84,1.72L28.63,7.77a2.85,2.85,0,0,0-2.41-1.3,1.66,1.66,0,0,0-1,.28.82.82,0,0,0-.38.69c0,.49.33.81,1,1l1.61.38q3.08.74,3.07,3.22a2.89,2.89,0,0,1-1.07,2.3,4.61,4.61,0,0,1-3,.89,5.18,5.18,0,0,1-4.29-2l1.51-1.55a3.57,3.57,0,0,0,3,1.49c1.07,0,1.6-.35,1.6-1.05C28.19,11.6,27.8,11.27,27,11.07Z"/><path class="cls-1" d="M41.49,10.52h-7a2.64,2.64,0,0,0,.82,1.83,2.68,2.68,0,0,0,1.89.67,3.05,3.05,0,0,0,2.65-1.45l1.61,1.52a5.15,5.15,0,0,1-4.26,2.1,5,5,0,0,1-3.74-1.48A5.32,5.32,0,0,1,32,9.87,5.83,5.83,0,0,1,33.31,6,4.31,4.31,0,0,1,36.8,4.41a4.91,4.91,0,0,1,2.14.45,3.88,3.88,0,0,1,1.48,1.22,6,6,0,0,1,.82,1.68,6.75,6.75,0,0,1,.27,1.92ZM36.82,6.6a2,2,0,0,0-1.51.58,2.8,2.8,0,0,0-.73,1.43H39a2.24,2.24,0,0,0-.54-1.4A2,2,0,0,0,36.82,6.6Z"/><path class="cls-1" d="M49.87,4.54V6.81a2.17,2.17,0,0,0-.38,0,2.82,2.82,0,0,0-2.47,1,5.52,5.52,0,0,0-.7,3.15v4h-2.4V4.66h2.36V5.78a3.84,3.84,0,0,1,3.13-1.26A3.78,3.78,0,0,1,49.87,4.54Z"/><path class="cls-1" d="M69.89,15H67.37V8.59H60.46V15H58V.25h2.5V6.3h6.91v-6h2.52Z"/><path class="cls-1" d="M73.17,2.56a1.44,1.44,0,0,1-.45-1.07A1.41,1.41,0,0,1,73.17.43,1.46,1.46,0,0,1,74.24,0a1.47,1.47,0,0,1,1.07.43,1.44,1.44,0,0,1,.44,1.06,1.46,1.46,0,0,1-.44,1.07A1.44,1.44,0,0,1,74.24,3,1.43,1.43,0,0,1,73.17,2.56ZM75.43,15H73V4.66h2.39Z"/><path class="cls-1" d="M84.32,4.54V6.81a2.17,2.17,0,0,0-.38,0,2.84,2.84,0,0,0-2.47,1,5.52,5.52,0,0,0-.7,3.15v4h-2.4V4.66h2.36V5.78a3.84,3.84,0,0,1,3.13-1.26A3.78,3.78,0,0,1,84.32,4.54Z"/><path class="cls-1" d="M94.44,10.52h-7a2.59,2.59,0,0,0,.82,1.83,2.68,2.68,0,0,0,1.89.67,3,3,0,0,0,2.64-1.45l1.62,1.52a5.15,5.15,0,0,1-4.26,2.1,5,5,0,0,1-3.74-1.48A5.28,5.28,0,0,1,85,9.87,5.88,5.88,0,0,1,86.26,6a4.33,4.33,0,0,1,3.5-1.58,4.83,4.83,0,0,1,2.13.45,3.8,3.8,0,0,1,1.48,1.22,5.47,5.47,0,0,1,.82,1.68,6.75,6.75,0,0,1,.27,1.92ZM89.78,6.6a2,2,0,0,0-1.51.58,2.82,2.82,0,0,0-.74,1.43h4.39a2.17,2.17,0,0,0-.53-1.4A2,2,0,0,0,89.78,6.6Z"/><path class="cls-1" d="M109.36,8.87l-1.79-.3a5.66,5.66,0,0,1-3.17-1.46,3.91,3.91,0,0,1-1.13-2.89,3.66,3.66,0,0,1,1.51-3.06A5.82,5.82,0,0,1,108.46,0a7.21,7.21,0,0,1,5.44,2.35L112.15,4.2a4.78,4.78,0,0,0-3.8-1.93,2.81,2.81,0,0,0-1.91.57,1.69,1.69,0,0,0-.65,1.32c0,1,.78,1.71,2.33,2l1.47.26q4.6.8,4.6,4.49A3.77,3.77,0,0,1,112.68,14a6.45,6.45,0,0,1-4.12,1.2,7.1,7.1,0,0,1-5.86-2.82l1.7-1.72a6.4,6.4,0,0,0,1.84,1.66,5.11,5.11,0,0,0,2.64.61,3.32,3.32,0,0,0,2.06-.56,1.72,1.72,0,0,0,.73-1.44C111.67,9.82,110.9,9.13,109.36,8.87Z"/><path class="cls-1" d="M125.62,10.52h-7a2.64,2.64,0,0,0,.82,1.83,2.68,2.68,0,0,0,1.89.67,3.05,3.05,0,0,0,2.65-1.45l1.61,1.52a5.15,5.15,0,0,1-4.26,2.1,5,5,0,0,1-3.74-1.48,5.32,5.32,0,0,1-1.43-3.84A5.83,5.83,0,0,1,117.44,6a4.31,4.31,0,0,1,3.49-1.58,4.91,4.91,0,0,1,2.14.45,3.88,3.88,0,0,1,1.48,1.22,6,6,0,0,1,.82,1.68,6.75,6.75,0,0,1,.27,1.92ZM121,6.6a2,2,0,0,0-1.51.58,2.8,2.8,0,0,0-.73,1.43h4.39a2.24,2.24,0,0,0-.54-1.4A2,2,0,0,0,121,6.6Z"/><path class="cls-1" d="M134,4.54V6.81a2.17,2.17,0,0,0-.38,0,2.82,2.82,0,0,0-2.47,1,5.52,5.52,0,0,0-.7,3.15v4h-2.4V4.66h2.36V5.78a3.84,3.84,0,0,1,3.13-1.26A3.78,3.78,0,0,1,134,4.54Z"/><path class="cls-1" d="M142,4.66h2.58L140.89,15h-2.61l-3.65-10.3h2.58l2.38,7.21Z"/><path class="cls-1" d="M146.25,2.56a1.44,1.44,0,0,1-.45-1.07,1.41,1.41,0,0,1,.45-1.06A1.46,1.46,0,0,1,147.32,0a1.47,1.47,0,0,1,1.07.43,1.44,1.44,0,0,1,.44,1.06,1.46,1.46,0,0,1-.44,1.07,1.44,1.44,0,0,1-1.07.44A1.43,1.43,0,0,1,146.25,2.56ZM148.52,15h-2.4V4.66h2.4Z"/><path class="cls-1" d="M156.16,6.6a2.57,2.57,0,0,0-2,.9,3.4,3.4,0,0,0-.78,2.31,3.32,3.32,0,0,0,.8,2.31,2.57,2.57,0,0,0,2,.9,2.66,2.66,0,0,0,1.48-.38,4.85,4.85,0,0,0,1.17-1.21L160.47,13a5.26,5.26,0,0,1-8,.68,5.24,5.24,0,0,1-1.51-3.83A5.26,5.26,0,0,1,152.44,6a4.92,4.92,0,0,1,3.66-1.56,5.06,5.06,0,0,1,4.18,2.06l-1.66,1.6A3.11,3.11,0,0,0,156.16,6.6Z"/><path class="cls-1" d="M171.29,10.52h-7a2.59,2.59,0,0,0,.82,1.83A2.68,2.68,0,0,0,167,13a3,3,0,0,0,2.64-1.45l1.62,1.52a5.15,5.15,0,0,1-4.26,2.1,5,5,0,0,1-3.74-1.48,5.32,5.32,0,0,1-1.43-3.84A5.88,5.88,0,0,1,163.1,6a4.33,4.33,0,0,1,3.5-1.58,4.83,4.83,0,0,1,2.13.45,3.73,3.73,0,0,1,1.48,1.22A5.47,5.47,0,0,1,171,7.76a6.75,6.75,0,0,1,.28,1.92ZM166.62,6.6a2,2,0,0,0-1.51.58,2.9,2.9,0,0,0-.74,1.43h4.39a2.17,2.17,0,0,0-.53-1.4A2,2,0,0,0,166.62,6.6Z"/><path class="cls-1" d="M177.69,11.07l-1.36-.34c-2.09-.51-3.13-1.6-3.13-3.25a2.7,2.7,0,0,1,1.05-2.24A4.25,4.25,0,0,1,177,4.41a5.22,5.22,0,0,1,3.84,1.72l-1.49,1.64a2.87,2.87,0,0,0-2.42-1.3,1.7,1.7,0,0,0-1,.28.84.84,0,0,0-.37.69c0,.49.33.81,1,1l1.62.38q3.07.74,3.07,3.22a2.89,2.89,0,0,1-1.07,2.3,4.64,4.64,0,0,1-3,.89,5.17,5.17,0,0,1-4.28-2l1.51-1.55a3.56,3.56,0,0,0,3,1.49c1.07,0,1.6-.35,1.6-1.05C178.87,11.6,178.48,11.27,177.69,11.07Z"/><path class="cls-1" d="M180.55,2.72a2.68,2.68,0,0,1,.77-1.93,2.67,2.67,0,0,1,3.79,0,2.62,2.62,0,0,1,.79,1.93,2.57,2.57,0,0,1-.79,1.9,2.67,2.67,0,0,1-3.79,0A2.63,2.63,0,0,1,180.55,2.72Zm.73,0a1.94,1.94,0,0,0,.56,1.4,1.85,1.85,0,0,0,1.37.58,1.89,1.89,0,0,0,1.39-.58,1.94,1.94,0,0,0,.56-1.4,2,2,0,0,0-.56-1.43,1.86,1.86,0,0,0-1.39-.58,1.81,1.81,0,0,0-1.37.58A2,2,0,0,0,181.28,2.72Zm3.17,1.16h-.76l-.47-.67h-.33v.67h-.67V1.42h1.11a1.2,1.2,0,0,1,.74.22.73.73,0,0,1,.31.65.83.83,0,0,1-.51.81ZM183.21,2h-.32v.61h.32c.33,0,.49-.11.49-.32S183.54,2,183.21,2Z"/></g></g></svg>