<svg xmlns="http://www.w3.org/2000/svg" viewBox="0 0 242.63 20"><defs><style>.cls-1{fill:#1c1f2e;}</style></defs><g id="Layer_2" data-name="Layer 2"><g id="Layer_1-2" data-name="Layer 1"><path class="cls-1" d="M12.48,19.7H0V.33H3.29V16.71h9.19Z"/><path class="cls-1" d="M19.28,20A4.83,4.83,0,0,1,16,18.88a3.77,3.77,0,0,1-1.31-3,3.94,3.94,0,0,1,1.57-3.38,6.74,6.74,0,0,1,4.07-1.16,8.72,8.72,0,0,1,2.74.47V10.9a2,2,0,0,0-.76-1.63,2.93,2.93,0,0,0-1.9-.61,3.46,3.46,0,0,0-3.21,2l-2.13-2a5.09,5.09,0,0,1,2.25-2.1,6.94,6.94,0,0,1,3.12-.72,6.42,6.42,0,0,1,4.21,1.3,4.67,4.67,0,0,1,1.57,3.82V19.7h-3.1V18.64A5.63,5.63,0,0,1,19.28,20Zm-1.41-4.34a1.41,1.41,0,0,0,.53,1.13,2.26,2.26,0,0,0,1.52.44,4.39,4.39,0,0,0,3.18-1.16V14.52A8,8,0,0,0,20.28,14a3.12,3.12,0,0,0-1.76.44A1.44,1.44,0,0,0,17.87,15.66Z"/><path class="cls-1" d="M35.57,14.58l-1.79-.44q-4.12-1-4.13-4.29A3.57,3.57,0,0,1,31,6.9a5.57,5.57,0,0,1,3.57-1.09,6.85,6.85,0,0,1,5.06,2.27l-2,2.16a3.77,3.77,0,0,0-3.18-1.72,2.25,2.25,0,0,0-1.35.37,1.11,1.11,0,0,0-.5.9c0,.65.44,1.07,1.33,1.28l2.13.49q4,1,4,4.24a3.75,3.75,0,0,1-1.41,3,6,6,0,0,1-4,1.18,6.8,6.8,0,0,1-5.64-2.63l2-2a4.68,4.68,0,0,0,3.9,2q2.1,0,2.1-1.38C37.12,15.28,36.61,14.84,35.57,14.58Z"/><path class="cls-1" d="M54.63,13.86H45.37a3.44,3.44,0,0,0,1.08,2.41,3.53,3.53,0,0,0,2.49.88,4,4,0,0,0,3.48-1.91l2.13,2A6.78,6.78,0,0,1,48.94,20,6.55,6.55,0,0,1,44,18.05,7,7,0,0,1,42.13,13a7.76,7.76,0,0,1,1.73-5.12,5.7,5.7,0,0,1,4.61-2.07,6.43,6.43,0,0,1,2.8.59A5.1,5.1,0,0,1,53.22,8a7.45,7.45,0,0,1,1.08,2.21,8.79,8.79,0,0,1,.36,2.53ZM48.49,8.69a2.62,2.62,0,0,0-2,.77,3.7,3.7,0,0,0-1,1.88h5.78a2.85,2.85,0,0,0-.7-1.85A2.61,2.61,0,0,0,48.49,8.69Z"/><path class="cls-1" d="M65.67,6V9a3.86,3.86,0,0,0-.5,0,3.72,3.72,0,0,0-3.25,1.3A7.24,7.24,0,0,0,61,14.39V19.7H57.84V6.14h3.1V7.61A5,5,0,0,1,65.06,6Z"/><path class="cls-1" d="M91.15,14.08l2.07,2.27A9.37,9.37,0,0,1,85.51,20a10,10,0,0,1-7.27-2.78A9.56,9.56,0,0,1,75.38,10a9.71,9.71,0,0,1,2.84-7.26A9.83,9.83,0,0,1,85.39,0,8.85,8.85,0,0,1,93,3.65L90.82,5.86A6.25,6.25,0,0,0,85.45,3a6.36,6.36,0,0,0-4.79,2,7,7,0,0,0-1.9,5,6.83,6.83,0,0,0,1.93,5,6.54,6.54,0,0,0,4.87,2A6.71,6.71,0,0,0,91.15,14.08Z"/><path class="cls-1" d="M97.43,18a6.84,6.84,0,0,1-2-5.06,6.91,6.91,0,0,1,2-5.08,7.1,7.1,0,0,1,9.94,0,6.88,6.88,0,0,1,2,5.08,6.85,6.85,0,0,1-2,5,7.11,7.11,0,0,1-9.94,0Zm2.25-8.1a4.37,4.37,0,0,0-1.06,3,4.38,4.38,0,0,0,1.06,3,3.48,3.48,0,0,0,2.73,1.19A3.44,3.44,0,0,0,105.1,16a4.39,4.39,0,0,0,1.07-3,4.37,4.37,0,0,0-1.07-3,3.44,3.44,0,0,0-2.69-1.19A3.48,3.48,0,0,0,99.68,9.88Z"/><path class="cls-1" d="M115.74,12.2v7.5h-3.15V6.14h3.09V7.25a4.45,4.45,0,0,1,3.52-1.44,5,5,0,0,1,3.94,1.58,6.35,6.35,0,0,1,1.42,4.42V19.7h-3.15V11.81a3.43,3.43,0,0,0-.71-2.29,2.37,2.37,0,0,0-2-.86,2.72,2.72,0,0,0-2.22.95A4,4,0,0,0,115.74,12.2Z"/><path class="cls-1" d="M133.89,14.58l-1.8-.44Q128,13.1,128,9.85a3.57,3.57,0,0,1,1.38-2.95,5.57,5.57,0,0,1,3.57-1.09A6.84,6.84,0,0,1,138,8.08l-2,2.16a3.77,3.77,0,0,0-3.19-1.72,2.25,2.25,0,0,0-1.35.37,1.11,1.11,0,0,0-.5.9c0,.65.44,1.07,1.33,1.28l2.13.49q4,1,4,4.24a3.75,3.75,0,0,1-1.41,3,6,6,0,0,1-4,1.18,6.81,6.81,0,0,1-5.64-2.63l2-2a4.68,4.68,0,0,0,3.9,2c1.4,0,2.11-.46,2.11-1.38C135.44,15.28,134.92,14.84,133.89,14.58Z"/><path class="cls-1" d="M146.33,19.72c-1.75,0-3-.36-3.65-1.09a5.41,5.41,0,0,1-1-3.72V9h-2V6.14h2V2.35h3.12V6.14H148V9h-3.24v5.48a3,3,0,0,0,.45,2,2.31,2.31,0,0,0,1.77.5l1,0v2.82C147.62,19.7,147.05,19.72,146.33,19.72Z"/><path class="cls-1" d="M158.75,6V9A4.83,4.83,0,0,0,155,10.24a7.23,7.23,0,0,0-.93,4.15V19.7h-3.15V6.14H154V7.61A5.07,5.07,0,0,1,158.15,6Z"/><path class="cls-1" d="M161.05,6.14h3.15v8.11a3.22,3.22,0,0,0,.67,2.14,2.31,2.31,0,0,0,1.88.79,2.48,2.48,0,0,0,2.07-.94,3.84,3.84,0,0,0,.75-2.46V6.14h3.15V19.7h-3.09V18.59A4.5,4.5,0,0,1,166.11,20a4.67,4.67,0,0,1-3.68-1.58,6.45,6.45,0,0,1-1.38-4.4Z"/><path class="cls-1" d="M182.79,8.69a3.32,3.32,0,0,0-2.64,1.19,4.45,4.45,0,0,0-1,3,4.43,4.43,0,0,0,1,3,3.39,3.39,0,0,0,2.66,1.19,3.45,3.45,0,0,0,2-.51,6.34,6.34,0,0,0,1.54-1.59l2.15,2A6.57,6.57,0,0,1,182.71,20a6.49,6.49,0,0,1-4.81-2,6.93,6.93,0,0,1-2-5,7,7,0,0,1,2-5.06,6.44,6.44,0,0,1,4.81-2.05,6.62,6.62,0,0,1,5.5,2.71L186,10.62A4.11,4.11,0,0,0,182.79,8.69Z"/><path class="cls-1" d="M196.26,19.72c-1.75,0-3-.36-3.65-1.09a5.41,5.41,0,0,1-1-3.72V9h-2V6.14h2V2.35h3.13V6.14H198V9h-3.23v5.48a3,3,0,0,0,.44,2,2.31,2.31,0,0,0,1.77.5l1,0v2.82C197.55,19.7,197,19.72,196.26,19.72Z"/><path class="cls-1" d="M201,3.38A1.92,1.92,0,0,1,200.44,2,1.86,1.86,0,0,1,201,.57,2,2,0,0,1,202.43,0a1.92,1.92,0,0,1,1.41.57A1.86,1.86,0,0,1,204.42,2a1.92,1.92,0,0,1-.58,1.42,1.92,1.92,0,0,1-1.41.58A2,2,0,0,1,201,3.38Zm3,16.32h-3.15V6.14H204Z"/><path class="cls-1" d="M209.21,18a6.84,6.84,0,0,1-2-5.06,6.91,6.91,0,0,1,2-5.08,7.1,7.1,0,0,1,9.94,0,6.89,6.89,0,0,1,2,5.08,6.85,6.85,0,0,1-2,5,7.11,7.11,0,0,1-9.94,0Zm2.25-8.1a4.37,4.37,0,0,0-1.06,3,4.38,4.38,0,0,0,1.06,3,3.69,3.69,0,0,0,5.43,0,4.38,4.38,0,0,0,1.06-3,4.37,4.37,0,0,0-1.06-3,3.69,3.69,0,0,0-5.43,0Z"/><path class="cls-1" d="M227.52,12.2v7.5h-3.15V6.14h3.1V7.25A4.45,4.45,0,0,1,231,5.81a5,5,0,0,1,3.94,1.58,6.35,6.35,0,0,1,1.43,4.42V19.7h-3.16V11.81a3.48,3.48,0,0,0-.7-2.29,2.4,2.4,0,0,0-2-.86,2.69,2.69,0,0,0-2.21.95A4,4,0,0,0,227.52,12.2Z"/><path class="cls-1" d="M235.59,3.78a3.49,3.49,0,0,1,1-2.53,3.33,3.33,0,0,1,2.48-1,3.43,3.43,0,0,1,2.51,1,3.5,3.5,0,0,1,1,2.53,3.46,3.46,0,0,1-1,2.51,3.39,3.39,0,0,1-2.51,1,3.29,3.29,0,0,1-2.48-1A3.45,3.45,0,0,1,235.59,3.78Zm1,0a2.58,2.58,0,0,0,.73,1.86,2.45,2.45,0,0,0,1.81.75,2.49,2.49,0,0,0,1.83-.75,2.59,2.59,0,0,0,.74-1.86,2.6,2.6,0,0,0-.74-1.87,2.43,2.43,0,0,0-1.83-.77,2.39,2.39,0,0,0-1.81.77A2.59,2.59,0,0,0,236.55,3.78Zm4.17,1.54h-1l-.62-.89h-.44v.89h-.87V2.08h1.46a1.66,1.66,0,0,1,1,.28,1,1,0,0,1,.4.87A1.09,1.09,0,0,1,240,4.29Zm-1.63-2.48h-.43v.8h.43c.43,0,.65-.14.65-.41S239.52,2.84,239.09,2.84Z"/></g></g></svg>