<svg xmlns="http://www.w3.org/2000/svg" viewBox="0 0 223.47 18.42"><defs><style>.cls-1{fill:#a87b44;}</style></defs><g id="Layer_2" data-name="Layer 2"><g id="Layer_1-2" data-name="Layer 1"><path class="cls-1" d="M11.49,18.14H0V.31H3V15.39h8.46Z"/><path class="cls-1" d="M17.76,18.42a4.42,4.42,0,0,1-3-1,3.44,3.44,0,0,1-1.21-2.76A3.61,3.61,0,0,1,15,11.52a6.09,6.09,0,0,1,3.74-1.07,8,8,0,0,1,2.53.43V10a1.81,1.81,0,0,0-.71-1.5A2.64,2.64,0,0,0,18.83,8a3.2,3.2,0,0,0-3,1.8L13.91,8A4.74,4.74,0,0,1,16,6a6.46,6.46,0,0,1,2.87-.66,5.9,5.9,0,0,1,3.88,1.2,4.28,4.28,0,0,1,1.45,3.51v8.08H21.33v-1A5.25,5.25,0,0,1,17.76,18.42Zm-1.3-4a1.32,1.32,0,0,0,.48,1.05,2.15,2.15,0,0,0,1.41.4,4.05,4.05,0,0,0,2.93-1.07V13.38a7.4,7.4,0,0,0-2.6-.51,2.86,2.86,0,0,0-1.62.4A1.33,1.33,0,0,0,16.46,14.42Z"/><path class="cls-1" d="M32.77,13.43,31.11,13c-2.53-.63-3.8-1.94-3.8-3.95a3.27,3.27,0,0,1,1.28-2.71,5.14,5.14,0,0,1,3.28-1,6.32,6.32,0,0,1,4.67,2.09l-1.81,2A3.47,3.47,0,0,0,31.8,7.85a2,2,0,0,0-1.25.34,1,1,0,0,0-.46.83c0,.59.41,1,1.22,1.17l2,.46c2.48.59,3.71,1.89,3.71,3.9a3.47,3.47,0,0,1-1.29,2.79A5.6,5.6,0,0,1,32,18.42,6.28,6.28,0,0,1,26.83,16l1.83-1.88a4.33,4.33,0,0,0,3.6,1.8c1.29,0,1.93-.42,1.93-1.27C34.19,14.07,33.72,13.67,32.77,13.43Z"/><path class="cls-1" d="M50.32,12.76H41.78a3.17,3.17,0,0,0,1,2.22,3.23,3.23,0,0,0,2.29.82A3.72,3.72,0,0,0,48.28,14l2,1.83a6.24,6.24,0,0,1-5.17,2.55,6,6,0,0,1-4.53-1.79A6.41,6.41,0,0,1,38.8,12a7.15,7.15,0,0,1,1.6-4.72,5.24,5.24,0,0,1,4.24-1.91,5.76,5.76,0,0,1,2.58.55A4.55,4.55,0,0,1,49,7.38a6.89,6.89,0,0,1,1,2,7.72,7.72,0,0,1,.34,2.33ZM44.66,8a2.45,2.45,0,0,0-1.83.71,3.38,3.38,0,0,0-.89,1.74h5.32a2.62,2.62,0,0,0-.65-1.71A2.4,2.4,0,0,0,44.66,8Z"/><path class="cls-1" d="M60.49,5.5V8.26a3.23,3.23,0,0,0-.46,0,3.44,3.44,0,0,0-3,1.2,6.68,6.68,0,0,0-.85,3.82v4.89h-2.9V5.66h2.85V7a4.65,4.65,0,0,1,3.8-1.53Z"/><path class="cls-1" d="M84,13l1.91,2.09a8.62,8.62,0,0,1-7.11,3.36,9.16,9.16,0,0,1-6.68-2.56,8.81,8.81,0,0,1-2.64-6.61A9,9,0,0,1,72,2.56,9,9,0,0,1,78.65,0a8.14,8.14,0,0,1,7,3.36l-2,2a5.74,5.74,0,0,0-5-2.62,5.85,5.85,0,0,0-4.4,1.83,6.42,6.42,0,0,0-1.76,4.64,6.26,6.26,0,0,0,1.78,4.57,6,6,0,0,0,4.48,1.82A6.18,6.18,0,0,0,84,13Z"/><path class="cls-1" d="M89.73,16.56a6.31,6.31,0,0,1-1.85-4.66,6.37,6.37,0,0,1,1.85-4.68,6.54,6.54,0,0,1,9.16,0,6.35,6.35,0,0,1,1.88,4.68,6.32,6.32,0,0,1-1.88,4.65,6.56,6.56,0,0,1-9.16,0ZM91.81,9.1a4.05,4.05,0,0,0-1,2.8,4.05,4.05,0,0,0,1,2.8,3.39,3.39,0,0,0,5,0,4.05,4.05,0,0,0,1-2.8,4.05,4.05,0,0,0-1-2.8,3.39,3.39,0,0,0-5,0Z"/><path class="cls-1" d="M106.6,11.24v6.9h-2.9V5.66h2.85v1a4.08,4.08,0,0,1,3.24-1.33,4.69,4.69,0,0,1,3.63,1.45,5.9,5.9,0,0,1,1.31,4.08v7.26h-2.91V10.88a3.22,3.22,0,0,0-.65-2.12A2.23,2.23,0,0,0,109.35,8a2.47,2.47,0,0,0-2,.87A3.66,3.66,0,0,0,106.6,11.24Z"/><path class="cls-1" d="M123.32,13.43,121.66,13c-2.53-.63-3.8-1.94-3.8-3.95a3.27,3.27,0,0,1,1.28-2.71,5.14,5.14,0,0,1,3.28-1,6.32,6.32,0,0,1,4.67,2.09l-1.81,2a3.47,3.47,0,0,0-2.93-1.58,2,2,0,0,0-1.25.34,1,1,0,0,0-.46.83c0,.59.41,1,1.22,1.17l2,.46q3.7.88,3.71,3.9a3.45,3.45,0,0,1-1.3,2.79,5.55,5.55,0,0,1-3.66,1.08,6.28,6.28,0,0,1-5.2-2.42l1.83-1.88a4.33,4.33,0,0,0,3.6,1.8c1.29,0,1.93-.42,1.93-1.27C124.74,14.07,124.27,13.67,123.32,13.43Z"/><path class="cls-1" d="M134.78,18.17a4.51,4.51,0,0,1-3.36-1,5,5,0,0,1-.95-3.43V8.26h-1.83V5.66h1.83V2.17h2.88V5.66h3v2.6h-3v5a2.87,2.87,0,0,0,.41,1.81,2.2,2.2,0,0,0,1.63.46l.94-.05v2.6C136,18.15,135.44,18.17,134.78,18.17Z"/><path class="cls-1" d="M146.22,5.5V8.26a3.23,3.23,0,0,0-.46,0,3.42,3.42,0,0,0-3,1.2,6.68,6.68,0,0,0-.86,3.82v4.89H139V5.66h2.85V7a4.67,4.67,0,0,1,3.8-1.53Z"/><path class="cls-1" d="M148.33,5.66h2.91v7.46a3,3,0,0,0,.61,2,2.16,2.16,0,0,0,1.73.72,2.3,2.3,0,0,0,1.91-.86,3.55,3.55,0,0,0,.69-2.27v-7h2.91V18.14h-2.86v-1a4.12,4.12,0,0,1-3.23,1.3A4.28,4.28,0,0,1,149.61,17a5.94,5.94,0,0,1-1.28-4Z"/><path class="cls-1" d="M168.36,8a3.07,3.07,0,0,0-2.43,1.1,4.09,4.09,0,0,0-1,2.8,4,4,0,0,0,1,2.8,3.41,3.41,0,0,0,4.24.63,6.07,6.07,0,0,0,1.42-1.47l2,1.86a6,6,0,0,1-5.3,2.7,6,6,0,0,1-4.43-1.87A6.4,6.4,0,0,1,162,11.9a6.42,6.42,0,0,1,1.83-4.66,5.94,5.94,0,0,1,4.43-1.89,6.1,6.1,0,0,1,5.07,2.5l-2,1.93A3.8,3.8,0,0,0,168.36,8Z"/><path class="cls-1" d="M180.77,18.17a4.48,4.48,0,0,1-3.36-1,5,5,0,0,1-.95-3.43V8.26h-1.83V5.66h1.83V2.17h2.88V5.66h3v2.6h-3v5a2.87,2.87,0,0,0,.41,1.81,2.19,2.19,0,0,0,1.63.46l.94-.05v2.6C182,18.15,181.43,18.17,180.77,18.17Z"/><path class="cls-1" d="M185.15,3.11a1.76,1.76,0,0,1-.53-1.3,1.72,1.72,0,0,1,.53-1.29,1.89,1.89,0,0,1,2.6,0,1.72,1.72,0,0,1,.53,1.29,1.76,1.76,0,0,1-.53,1.3,1.86,1.86,0,0,1-2.6,0Zm2.75,15H185V5.66h2.9Z"/><path class="cls-1" d="M192.69,16.56a6.32,6.32,0,0,1-1.86-4.66,6.38,6.38,0,0,1,1.86-4.68,6.54,6.54,0,0,1,9.16,0,6.35,6.35,0,0,1,1.87,4.68,6.31,6.31,0,0,1-1.87,4.65,6.56,6.56,0,0,1-9.16,0Zm2.08-7.46a4,4,0,0,0-1,2.8,4,4,0,0,0,1,2.8,3.22,3.22,0,0,0,2.51,1.1,3.18,3.18,0,0,0,2.48-1.1,4,4,0,0,0,1-2.8,4,4,0,0,0-1-2.8A3.18,3.18,0,0,0,197.28,8,3.22,3.22,0,0,0,194.77,9.1Z"/><path class="cls-1" d="M209.56,11.24v6.9h-2.91V5.66h2.86v1a4.07,4.07,0,0,1,3.23-1.33,4.66,4.66,0,0,1,3.63,1.45,5.86,5.86,0,0,1,1.32,4.08v7.26h-2.91V10.88a3.22,3.22,0,0,0-.65-2.12A2.23,2.23,0,0,0,212.31,8a2.5,2.5,0,0,0-2,.87A3.72,3.72,0,0,0,209.56,11.24Z"/><path class="cls-1" d="M217,3.49a3.21,3.21,0,0,1,.93-2.33,3.21,3.21,0,0,1,4.6,0,3.19,3.19,0,0,1,.95,2.33,3.18,3.18,0,0,1-.95,2.31,3.26,3.26,0,0,1-4.6,0A3.2,3.2,0,0,1,217,3.49Zm.88,0a2.35,2.35,0,0,0,.68,1.7,2.21,2.21,0,0,0,1.66.7,2.26,2.26,0,0,0,1.69-.7,2.35,2.35,0,0,0,.68-1.7,2.4,2.4,0,0,0-.68-1.73,2.24,2.24,0,0,0-1.69-.71,2.19,2.19,0,0,0-1.66.71A2.4,2.4,0,0,0,217.87,3.49Zm3.84,1.41h-.91l-.57-.82h-.41V4.9H219v-3h1.35a1.49,1.49,0,0,1,.9.26.89.89,0,0,1,.37.79A1,1,0,0,1,221,4Zm-1.5-2.28h-.39v.73h.39c.4,0,.6-.12.6-.38S220.61,2.62,220.21,2.62Z"/></g></g></svg>