<svg xmlns="http://www.w3.org/2000/svg" viewBox="0 0 628.77 51.83"><defs><style>.cls-1{fill:#fff;}</style></defs><g id="Layer_2" data-name="Layer 2"><g id="Layer_1-2" data-name="Layer 1"><path class="cls-1" d="M32.33,51H0V.86H8.53V43.3h23.8Z"/><path class="cls-1" d="M50,51.83a12.54,12.54,0,0,1-8.42-2.9,9.69,9.69,0,0,1-3.41-7.78q0-5.73,4.09-8.75a17.33,17.33,0,0,1,10.53-3,22.46,22.46,0,0,1,7.1,1.22V28.25a5.12,5.12,0,0,0-2-4.23A7.61,7.61,0,0,0,53,22.44a9,9,0,0,0-8.32,5.09l-5.52-5.16A13.11,13.11,0,0,1,45,16.92a18.17,18.17,0,0,1,8.1-1.87q6.81,0,10.9,3.37T68,28.32V51H60V48.32A14.72,14.72,0,0,1,50,51.83ZM46.31,40.58a3.71,3.71,0,0,0,1.36,2.94,6,6,0,0,0,3.95,1.14,11.42,11.42,0,0,0,8.24-3v-4a20.58,20.58,0,0,0-7.31-1.44A8,8,0,0,0,48,37.35,3.68,3.68,0,0,0,46.31,40.58Z"/><path class="cls-1" d="M92.19,37.78l-4.66-1.15Q76.85,34,76.85,25.52a9.2,9.2,0,0,1,3.58-7.63,14.48,14.48,0,0,1,9.25-2.84,17.71,17.71,0,0,1,13.12,5.88l-5.09,5.6a9.79,9.79,0,0,0-8.24-4.45,5.72,5.72,0,0,0-3.52,1,2.85,2.85,0,0,0-1.29,2.33q0,2.51,3.45,3.3L93.63,30q10.45,2.51,10.46,11a9.73,9.73,0,0,1-3.66,7.84q-3.65,3.06-10.32,3-9.24,0-14.62-6.81l5.16-5.3a12.12,12.12,0,0,0,10.11,5.09q5.44,0,5.45-3.59Q96.21,38.79,92.19,37.78Z"/><path class="cls-1" d="M141.59,35.92h-24a8.93,8.93,0,0,0,2.79,6.23,9.22,9.22,0,0,0,6.46,2.3,10.43,10.43,0,0,0,9-5l5.52,5.16a17.61,17.61,0,0,1-14.55,7.17q-7.89,0-12.76-5t-4.88-13.09a20.07,20.07,0,0,1,4.48-13.26,14.78,14.78,0,0,1,11.94-5.38,16.45,16.45,0,0,1,7.27,1.55,12.93,12.93,0,0,1,5.06,4.15,19.75,19.75,0,0,1,2.8,5.74,22.81,22.81,0,0,1,.93,6.56ZM125.67,22.51a6.83,6.83,0,0,0-5.16,2A9.55,9.55,0,0,0,118,29.39h15a7.58,7.58,0,0,0-1.83-4.8C130,23.21,128.16,22.51,125.67,22.51Z"/><path class="cls-1" d="M170.19,15.48v7.75a10.24,10.24,0,0,0-1.29-.07c-4,0-6.82,1.12-8.42,3.37s-2.41,5.83-2.41,10.75V51H149.9V15.91h8v3.81q3.58-4.3,10.68-4.31C169.09,15.41,169.61,15.44,170.19,15.48Z"/><path class="cls-1" d="M236.21,36.49l5.38,5.88q-7.53,9.47-20,9.46-11.4,0-18.82-7.2T195.35,26q0-11.61,7.35-18.81T221.3,0q12.62,0,19.57,9.46l-5.52,5.74a16.13,16.13,0,0,0-13.91-7.38A16.46,16.46,0,0,0,209,13a18.08,18.08,0,0,0-4.94,13,17.64,17.64,0,0,0,5,12.87A16.88,16.88,0,0,0,221.73,44Q230.55,44,236.21,36.49Z"/><path class="cls-1" d="M252.48,46.6a17.79,17.79,0,0,1-5.23-13.12,17.93,17.93,0,0,1,5.23-13.16,18.4,18.4,0,0,1,25.78,0,17.87,17.87,0,0,1,5.26,13.16,17.75,17.75,0,0,1-5.26,13.08,18.45,18.45,0,0,1-25.78,0Zm5.85-21a11.4,11.4,0,0,0-2.76,7.89,11.4,11.4,0,0,0,2.76,7.89,9.55,9.55,0,0,0,14.05,0,11.4,11.4,0,0,0,2.76-7.89,11.4,11.4,0,0,0-2.76-7.89,9.55,9.55,0,0,0-14.05,0Z"/><path class="cls-1" d="M299.94,31.61V51h-8.17V15.91h8v2.87a11.54,11.54,0,0,1,9.1-3.73q6.53,0,10.22,4.09t3.69,11.47V51h-8.17V30.61a9.08,9.08,0,0,0-1.83-5.95,6.27,6.27,0,0,0-5.12-2.22A7,7,0,0,0,302,24.91,10.33,10.33,0,0,0,299.94,31.61Z"/><path class="cls-1" d="M347,37.78l-4.66-1.15Q331.63,34,331.63,25.52a9.2,9.2,0,0,1,3.58-7.63,14.46,14.46,0,0,1,9.25-2.84,17.71,17.71,0,0,1,13.12,5.88l-5.09,5.6a9.79,9.79,0,0,0-8.25-4.45,5.69,5.69,0,0,0-3.51,1,2.85,2.85,0,0,0-1.29,2.33q0,2.51,3.44,3.3L348.4,30q10.47,2.51,10.47,11a9.73,9.73,0,0,1-3.66,7.84q-3.66,3.06-10.32,3-9.25,0-14.63-6.81l5.17-5.3a12.12,12.12,0,0,0,10.1,5.09c3.64,0,5.45-1.2,5.45-3.59Q351,38.79,347,37.78Z"/><path class="cls-1" d="M379.23,51.11q-6.81,0-9.47-2.83t-2.65-9.64V23.23H362V15.91h5.16V6.1h8.1v9.81h8.39v7.32h-8.39V37.42c0,2.54.39,4.23,1.15,5.09s2.29,1.29,4.59,1.29l2.65-.14V51C382.55,51.07,381.09,51.11,379.23,51.11Z"/><path class="cls-1" d="M411.41,15.48v7.75a10,10,0,0,0-1.29-.07q-6,0-8.42,3.37t-2.4,10.75V51h-8.17V15.91h8v3.81q3.58-4.3,10.68-4.31C410.31,15.41,410.84,15.44,411.41,15.48Z"/><path class="cls-1" d="M417.36,15.91h8.18v21a8.35,8.35,0,0,0,1.72,5.56,6,6,0,0,0,4.87,2,6.47,6.47,0,0,0,5.38-2.44,10,10,0,0,0,1.94-6.38V15.91h8.17V51h-8V48.17q-3.3,3.66-9.11,3.66A12,12,0,0,1,421,47.74q-3.58-4.08-3.59-11.39Z"/><path class="cls-1" d="M473.71,22.51a8.72,8.72,0,0,0-6.85,3.08,11.6,11.6,0,0,0-2.69,7.89,11.48,11.48,0,0,0,2.73,7.89,9.62,9.62,0,0,0,11.94,1.75,16.38,16.38,0,0,0,4-4.12l5.6,5.23q-5.24,7.6-14.91,7.6A16.84,16.84,0,0,1,461,46.56a18,18,0,0,1-5.16-13.08A18.09,18.09,0,0,1,461,20.36a16.76,16.76,0,0,1,12.48-5.31,17.21,17.21,0,0,1,14.26,7l-5.66,5.45Q478.29,22.52,473.71,22.51Z"/><path class="cls-1" d="M508.62,51.11q-6.81,0-9.46-2.83t-2.65-9.64V23.23h-5.16V15.91h5.16V6.1h8.1v9.81H513v7.32h-8.38V37.42c0,2.54.38,4.23,1.15,5.09s2.29,1.29,4.58,1.29l2.65-.14V51C511.94,51.07,510.49,51.11,508.62,51.11Z"/><path class="cls-1" d="M521,8.75a5,5,0,0,1-1.5-3.66A4.87,4.87,0,0,1,521,1.47a5.28,5.28,0,0,1,7.31,0,4.85,4.85,0,0,1,1.51,3.62,5,5,0,0,1-1.51,3.66,5.2,5.2,0,0,1-7.31,0ZM528.69,51h-8.17V15.91h8.17Z"/><path class="cls-1" d="M542.17,46.6a17.79,17.79,0,0,1-5.23-13.12,17.93,17.93,0,0,1,5.23-13.16,18.39,18.39,0,0,1,25.77,0,17.84,17.84,0,0,1,5.27,13.16,17.72,17.72,0,0,1-5.27,13.08,18.44,18.44,0,0,1-25.77,0Zm5.84-21a11.4,11.4,0,0,0-2.76,7.89A11.4,11.4,0,0,0,548,41.37a9.08,9.08,0,0,0,7.07,3.08,9,9,0,0,0,7-3.08,11.4,11.4,0,0,0,2.76-7.89,11.4,11.4,0,0,0-2.76-7.89,9,9,0,0,0-7-3.08A9.08,9.08,0,0,0,548,25.59Z"/><path class="cls-1" d="M589.63,31.61V51h-8.17V15.91h8v2.87a11.56,11.56,0,0,1,9.11-3.73q6.52,0,10.21,4.09t3.7,11.47V51h-8.18V30.61a9.07,9.07,0,0,0-1.82-5.95,6.28,6.28,0,0,0-5.13-2.22,7,7,0,0,0-5.74,2.47A10.39,10.39,0,0,0,589.63,31.61Z"/><path class="cls-1" d="M610.54,9.81a9.09,9.09,0,0,1,2.63-6.56A8.61,8.61,0,0,1,619.61.54a8.78,8.78,0,0,1,6.49,2.71,9,9,0,0,1,2.67,6.56,8.88,8.88,0,0,1-2.67,6.5A8.8,8.8,0,0,1,619.61,19a8.63,8.63,0,0,1-6.44-2.69A9,9,0,0,1,610.54,9.81Zm2.48,0a6.6,6.6,0,0,0,1.91,4.8,6.27,6.27,0,0,0,4.68,1.95,6.38,6.38,0,0,0,4.73-1.95,6.58,6.58,0,0,0,1.93-4.8,6.72,6.72,0,0,0-1.93-4.87,6.31,6.31,0,0,0-4.73-2,6.2,6.2,0,0,0-4.68,2A6.75,6.75,0,0,0,613,9.81Zm10.8,4h-2.57l-1.61-2.31H618.5v2.31h-2.27V5.39H620a4.28,4.28,0,0,1,2.54.74,2.56,2.56,0,0,1,1,2.24,2.79,2.79,0,0,1-1.74,2.74Zm-4.21-6.43H618.5V9.44h1.11c1.11,0,1.67-.36,1.67-1.07S620.72,7.36,619.61,7.36Z"/></g></g></svg>