<svg xmlns="http://www.w3.org/2000/svg" viewBox="0 0 16 16"><defs><style>.cls-1{fill:#1b1f2f;}</style></defs><g id="Layer_2" data-name="Layer 2"><g id="Layer_1-2" data-name="Layer 1"><path class="cls-1" d="M10,11.07H6V4.93H7.07v5.19H10Z"/><path class="cls-1" d="M8,14.49A6.49,6.49,0,1,1,14.49,8,6.5,6.5,0,0,1,8,14.49ZM8,1.92A6.08,6.08,0,1,0,14.08,8,6.09,6.09,0,0,0,8,1.92Z"/><path class="cls-1" d="M8,16a8,8,0,1,1,8-8A8,8,0,0,1,8,16ZM8,.41A7.59,7.59,0,1,0,15.59,8,7.59,7.59,0,0,0,8,.41Z"/></g></g></svg>